<?xml version="1.0" encoding="UTF-8" standalone="no"?>
<!DOCTYPE svg PUBLIC "-//W3C//DTD SVG 1.1//EN"
 "http://www.w3.org/Graphics/SVG/1.1/DTD/svg11.dtd">
<!-- Generated by graphviz version 2.43.0 (0)
 -->
<!-- Title: pipeline Pages: 1 -->
<svg width="712pt" height="98pt"
 viewBox="0.00 0.00 711.77 98.00" xmlns="http://www.w3.org/2000/svg" xmlns:xlink="http://www.w3.org/1999/xlink">
<g id="graph0" class="graph" transform="scale(1 1) rotate(0) translate(4 94)">
<title>pipeline</title>
<polygon fill="white" stroke="transparent" points="-4,4 -4,-94 707.77,-94 707.77,4 -4,4"/>
<!-- Haskell -->
<g id="node1" class="node">
<title>Haskell</title>
<polygon fill="none" stroke="black" points="110,-90 0,-90 0,-54 110,-54 110,-90"/>
<text text-anchor="middle" x="55" y="-68.3" font-family="Times,serif" font-size="14.00">Haskell Code</text>
</g>
<!-- Core -->
<g id="node2" class="node">
<title>Core</title>
<ellipse fill="none" stroke="black" cx="192.15" cy="-72" rx="46.29" ry="18"/>
<text text-anchor="middle" x="192.15" y="-68.3" font-family="Times,serif" font-size="14.00">Core IR</text>
</g>
<!-- Haskell&#45;&gt;Core -->
<g id="edge1" class="edge">
<title>Haskell&#45;&gt;Core</title>
<path fill="none" stroke="black" d="M110.19,-72C118.54,-72 127.18,-72 135.56,-72"/>
<polygon fill="black" stroke="black" points="135.63,-75.5 145.63,-72 135.63,-68.5 135.63,-75.5"/>
</g>
<!-- FIR -->
<g id="node3" class="node">
<title>FIR</title>
<ellipse fill="none" stroke="black" cx="337.99" cy="-72" rx="63.89" ry="18"/>
<text text-anchor="middle" x="337.99" y="-68.3" font-family="Times,serif" font-size="14.00">ForSyDe IR</text>
</g>
<!-- Core&#45;&gt;FIR -->
<g id="edge2" class="edge">
<title>Core&#45;&gt;FIR</title>
<path fill="none" stroke="black" d="M238.66,-72C246.76,-72 255.39,-72 264.03,-72"/>
<polygon fill="black" stroke="black" points="264.16,-75.5 274.16,-72 264.16,-68.5 264.16,-75.5"/>
</g>
<!-- PIR -->
<g id="node4" class="node">
<title>PIR</title>
<ellipse fill="none" stroke="black" cx="513.72" cy="-72" rx="74.99" ry="18"/>
<text text-anchor="middle" x="513.72" y="-68.3" font-family="Times,serif" font-size="14.00">Procedural IR</text>
</g>
<!-- FIR&#45;&gt;PIR -->
<g id="edge3" class="edge">
<title>FIR&#45;&gt;PIR</title>
<path fill="none" stroke="black" d="M401.71,-72C410.47,-72 419.58,-72 428.65,-72"/>
<polygon fill="black" stroke="black" points="428.85,-75.5 438.85,-72 428.85,-68.5 428.85,-75.5"/>
</g>
<!-- LSP -->
<g id="node8" class="node">
<title>LSP</title>
<ellipse fill="none" stroke="black" cx="337.99" cy="-18" rx="29.5" ry="18"/>
<text text-anchor="middle" x="337.99" y="-14.3" font-family="Times,serif" font-size="14.00">LSP</text>
</g>
<!-- FIR&#45;&gt;LSP -->
<g id="edge5" class="edge">
<title>FIR&#45;&gt;LSP</title>
<path fill="none" stroke="black" d="M337.99,-53.79C337.99,-51.31 337.99,-48.83 337.99,-46.34"/>
<polygon fill="black" stroke="black" points="341.49,-46.14 337.99,-36.14 334.49,-46.14 341.49,-46.14"/>
</g>
<!-- C -->
<g id="node5" class="node">
<title>C</title>
<polygon fill="none" stroke="black" points="698.77,-90 630.77,-90 630.77,-54 698.77,-54 698.77,-90"/>
<text text-anchor="middle" x="664.77" y="-68.3" font-family="Times,serif" font-size="14.00">C Code</text>
</g>
<!-- PIR&#45;&gt;C -->
<g id="edge4" class="edge">
<title>PIR&#45;&gt;C</title>
<path fill="none" stroke="black" d="M588.81,-72C599.65,-72 610.51,-72 620.46,-72"/>
<polygon fill="black" stroke="black" points="620.46,-75.5 630.46,-72 620.46,-68.5 620.46,-75.5"/>
</g>
<!-- KLIGHD -->
<g id="node6" class="node">
<title>KLIGHD</title>
<ellipse fill="none" stroke="black" cx="513.72" cy="-18" rx="76.09" ry="18"/>
<text text-anchor="middle" x="513.72" y="-14.3" font-family="Times,serif" font-size="14.00">KLighD Client</text>
</g>
<!-- Diagram -->
<g id="node7" class="node">
<title>Diagram</title>
<polygon fill="none" stroke="black" points="703.77,-36 625.77,-36 625.77,0 703.77,0 703.77,-36"/>
<text text-anchor="middle" x="664.77" y="-14.3" font-family="Times,serif" font-size="14.00">Diagram</text>
</g>
<!-- KLIGHD&#45;&gt;Diagram -->
<g id="edge7" class="edge">
<title>KLIGHD&#45;&gt;Diagram</title>
<path fill="none" stroke="black" d="M590.12,-18C598.75,-18 607.36,-18 615.5,-18"/>
<polygon fill="black" stroke="black" points="615.51,-21.5 625.51,-18 615.51,-14.5 615.51,-21.5"/>
</g>
<!-- LSP&#45;&gt;KLIGHD -->
<g id="edge6" class="edge">
<title>LSP&#45;&gt;KLIGHD</title>
<path fill="none" stroke="black" d="M367.29,-18C383.81,-18 405.61,-18 427.3,-18"/>
<polygon fill="black" stroke="black" points="427.57,-21.5 437.57,-18 427.57,-14.5 427.57,-21.5"/>
</g>
</g>
</svg>
