<?xml version="1.0" encoding="UTF-8" standalone="no"?>
<!DOCTYPE svg PUBLIC "-//W3C//DTD SVG 1.1//EN"
 "http://www.w3.org/Graphics/SVG/1.1/DTD/svg11.dtd">
<!-- Generated by graphviz version 2.43.0 (0)
 -->
<!-- Title: pipeline Pages: 1 -->
<svg width="729pt" height="152pt"
 viewBox="0.00 0.00 728.67 152.00" xmlns="http://www.w3.org/2000/svg" xmlns:xlink="http://www.w3.org/1999/xlink">
<g id="graph0" class="graph" transform="scale(1 1) rotate(0) translate(4 148)">
<title>pipeline</title>
<polygon fill="white" stroke="transparent" points="-4,4 -4,-148 724.67,-148 724.67,4 -4,4"/>
<!-- Haskell -->
<g id="node1" class="node">
<title>Haskell</title>
<polygon fill="none" stroke="black" points="110,-144 0,-144 0,-108 110,-108 110,-144"/>
<text text-anchor="middle" x="55" y="-122.3" font-family="Times,serif" font-size="14.00">Haskell Code</text>
</g>
<!-- Core -->
<g id="node2" class="node">
<title>Core</title>
<ellipse fill="none" stroke="black" cx="192.15" cy="-126" rx="46.29" ry="18"/>
<text text-anchor="middle" x="192.15" y="-122.3" font-family="Times,serif" font-size="14.00">Core IR</text>
</g>
<!-- Haskell&#45;&gt;Core -->
<g id="edge1" class="edge">
<title>Haskell&#45;&gt;Core</title>
<path fill="none" stroke="black" d="M110.19,-126C118.54,-126 127.18,-126 135.56,-126"/>
<polygon fill="black" stroke="black" points="135.63,-129.5 145.63,-126 135.63,-122.5 135.63,-129.5"/>
</g>
<!-- FIR -->
<g id="node3" class="node">
<title>FIR</title>
<ellipse fill="none" stroke="black" cx="337.99" cy="-126" rx="63.89" ry="18"/>
<text text-anchor="middle" x="337.99" y="-122.3" font-family="Times,serif" font-size="14.00">ForSyDe IR</text>
</g>
<!-- Core&#45;&gt;FIR -->
<g id="edge2" class="edge">
<title>Core&#45;&gt;FIR</title>
<path fill="none" stroke="black" d="M238.66,-126C246.76,-126 255.39,-126 264.03,-126"/>
<polygon fill="black" stroke="black" points="264.16,-129.5 274.16,-126 264.16,-122.5 264.16,-129.5"/>
</g>
<!-- PIR -->
<g id="node4" class="node">
<title>PIR</title>
<ellipse fill="none" stroke="black" cx="522.17" cy="-126" rx="74.99" ry="18"/>
<text text-anchor="middle" x="522.17" y="-122.3" font-family="Times,serif" font-size="14.00">Procedural IR</text>
</g>
<!-- FIR&#45;&gt;PIR -->
<g id="edge3" class="edge">
<title>FIR&#45;&gt;PIR</title>
<path fill="none" stroke="black" d="M401.68,-126C413.18,-126 425.35,-126 437.35,-126"/>
<polygon fill="black" stroke="black" points="437.38,-129.5 447.38,-126 437.38,-122.5 437.38,-129.5"/>
</g>
<!-- JSON -->
<g id="node6" class="node">
<title>JSON</title>
<polygon fill="none" stroke="black" points="365.49,-90 310.49,-90 310.49,-54 365.49,-54 365.49,-90"/>
<text text-anchor="middle" x="337.99" y="-68.3" font-family="Times,serif" font-size="14.00">JSON</text>
</g>
<!-- FIR&#45;&gt;JSON -->
<g id="edge5" class="edge">
<title>FIR&#45;&gt;JSON</title>
<path fill="none" stroke="black" d="M337.99,-107.79C337.99,-105.31 337.99,-102.83 337.99,-100.34"/>
<polygon fill="black" stroke="black" points="341.49,-100.14 337.99,-90.14 334.49,-100.14 341.49,-100.14"/>
</g>
<!-- C -->
<g id="node5" class="node">
<title>C</title>
<polygon fill="none" stroke="black" points="715.67,-144 647.67,-144 647.67,-108 715.67,-108 715.67,-144"/>
<text text-anchor="middle" x="681.67" y="-122.3" font-family="Times,serif" font-size="14.00">C Code</text>
</g>
<!-- PIR&#45;&gt;C -->
<g id="edge4" class="edge">
<title>PIR&#45;&gt;C</title>
<path fill="none" stroke="black" d="M597.31,-126C611.02,-126 624.92,-126 637.34,-126"/>
<polygon fill="black" stroke="black" points="637.38,-129.5 647.38,-126 637.38,-122.5 637.38,-129.5"/>
</g>
<!-- LSP -->
<g id="node9" class="node">
<title>LSP</title>
<ellipse fill="none" stroke="black" cx="337.99" cy="-18" rx="29.5" ry="18"/>
<text text-anchor="middle" x="337.99" y="-14.3" font-family="Times,serif" font-size="14.00">LSP</text>
</g>
<!-- JSON&#45;&gt;LSP -->
<g id="edge6" class="edge">
<title>JSON&#45;&gt;LSP</title>
<path fill="none" stroke="black" d="M337.99,-53.79C337.99,-51.31 337.99,-48.83 337.99,-46.34"/>
<polygon fill="black" stroke="black" points="341.49,-46.14 337.99,-36.14 334.49,-46.14 341.49,-46.14"/>
</g>
<!-- KLIGHD -->
<g id="node7" class="node">
<title>KLIGHD</title>
<ellipse fill="none" stroke="black" cx="522.17" cy="-18" rx="84.49" ry="18"/>
<text text-anchor="middle" x="522.17" y="-14.3" font-family="Times,serif" font-size="14.00">KLighD VSCode</text>
</g>
<!-- Diagram -->
<g id="node8" class="node">
<title>Diagram</title>
<polygon fill="none" stroke="black" points="720.67,-36 642.67,-36 642.67,0 720.67,0 720.67,-36"/>
<text text-anchor="middle" x="681.67" y="-14.3" font-family="Times,serif" font-size="14.00">Diagram</text>
</g>
<!-- KLIGHD&#45;&gt;Diagram -->
<g id="edge8" class="edge">
<title>KLIGHD&#45;&gt;Diagram</title>
<path fill="none" stroke="black" d="M606.99,-18C615.57,-18 624.07,-18 632.08,-18"/>
<polygon fill="black" stroke="black" points="632.3,-21.5 642.3,-18 632.3,-14.5 632.3,-21.5"/>
</g>
<!-- LSP&#45;&gt;KLIGHD -->
<g id="edge7" class="edge">
<title>LSP&#45;&gt;KLIGHD</title>
<path fill="none" stroke="black" d="M367.45,-18C383.86,-18 405.51,-18 427.37,-18"/>
<polygon fill="black" stroke="black" points="427.41,-21.5 437.41,-18 427.41,-14.5 427.41,-21.5"/>
</g>
</g>
</svg>
